<svg width="25" height="25" viewBox="0 0 25 25" fill="none" xmlns="http://www.w3.org/2000/svg">
<path d="M12.3458 3.15039C9.03577 3.15039 6.34577 5.84039 6.34577 9.15039V12.0404C6.34577 12.6504 6.08577 13.5804 5.77577 14.1004L4.62577 16.0104C3.91577 17.1904 4.40577 18.5004 5.70577 18.9404C10.0158 20.3804 14.6658 20.3804 18.9758 18.9404C20.1858 18.5404 20.7158 17.1104 20.0558 16.0104L18.9058 14.1004C18.6058 13.5804 18.3458 12.6504 18.3458 12.0404V9.15039C18.3458 5.85039 15.6458 3.15039 12.3458 3.15039Z" stroke="white" stroke-width="1.5" stroke-miterlimit="10" stroke-linecap="round"/>
<path d="M14.1956 3.44018C13.8856 3.35018 13.5656 3.28018 13.2356 3.24018C12.2756 3.12018 11.3556 3.19018 10.4956 3.44018C10.7856 2.70018 11.5056 2.18018 12.3456 2.18018C13.1856 2.18018 13.9056 2.70018 14.1956 3.44018Z" stroke="white" stroke-width="1.5" stroke-miterlimit="10" stroke-linecap="round" stroke-linejoin="round"/>
<path d="M15.3457 19.3003C15.3457 20.9503 13.9957 22.3003 12.3457 22.3003C11.5257 22.3003 10.7657 21.9603 10.2257 21.4203C9.6857 20.8803 9.3457 20.1203 9.3457 19.3003" stroke="white" stroke-width="1.5" stroke-miterlimit="10"/>
</svg>
